# xmcd CD database file
#
# Track frame offsets:
#	150
#	10025
#	20840
#	31812
#	46702
#
# Disc length: 819 seconds
#
# Revision: 0
# Processed by: cddbd v1.5.1PL2 Copyright (c) Steve Scherf et al.
# Submitted via: CDex 1.51
#
DISCID=2d033105
DTITLE=Manouche a Trois - Demo '05
DYEAR=2005
DGENRE=Jazz
TTITLE0=Crazy rhythm
TTITLE1=Nuages
TTITLE2=Limehouse blues
TTITLE3=Mire Pral
TTITLE4=Pennies from Heaven
EXTD=YEAR: 2005
EXTT0=
EXTT1=
EXTT2=
EXTT3=
EXTT4=
PLAYORDER=
